<?xml version="1.0" encoding="UTF-8" standalone="no"?>
<svg
   xmlns:dc="http://purl.org/dc/elements/1.1/"
   xmlns:cc="http://creativecommons.org/ns#"
   xmlns:rdf="http://www.w3.org/1999/02/22-rdf-syntax-ns#"
   xmlns:svg="http://www.w3.org/2000/svg"
   xmlns="http://www.w3.org/2000/svg"
   xmlns:sodipodi="http://sodipodi.sourceforge.net/DTD/sodipodi-0.dtd"
   xmlns:inkscape="http://www.inkscape.org/namespaces/inkscape"
   width="64"
   height="64"
   viewBox="0 0 16.933333 16.933334"
   version="1.1"
   id="svg8"
   inkscape:version="1.0.1 (3bc2e813f5, 2020-09-07)"
   sodipodi:docname="Logo Prog4.svg"
   inkscape:export-filename="C:\Users\hiram\Google Drive\UNIMAR - Clases\Programación IV\2020-3\Material de Apoyo para Clases\Logo Prog4.png"
   inkscape:export-xdpi="96.127953"
   inkscape:export-ydpi="96.127953">
  <defs
     id="defs2" />
  <sodipodi:namedview
     id="base"
     pagecolor="#ffffff"
     bordercolor="#666666"
     borderopacity="1.0"
     inkscape:pageopacity="0"
     inkscape:pageshadow="2"
     inkscape:zoom="8.2140586"
     inkscape:cx="32.022368"
     inkscape:cy="32.035532"
     inkscape:document-units="mm"
     inkscape:current-layer="g913"
     showgrid="false"
     units="px"
     inkscape:window-width="1366"
     inkscape:window-height="715"
     inkscape:window-x="-8"
     inkscape:window-y="-8"
     inkscape:window-maximized="1"
     inkscape:document-rotation="0"
     inkscape:lockguides="false" />
  <metadata
     id="metadata5">
    <rdf:RDF>
      <cc:Work
         rdf:about="">
        <dc:format>image/svg+xml</dc:format>
        <dc:type
           rdf:resource="http://purl.org/dc/dcmitype/StillImage" />
        <dc:title />
      </cc:Work>
    </rdf:RDF>
  </metadata>
  <g
     inkscape:label="Capa 1"
     inkscape:groupmode="layer"
     id="layer1"
     transform="translate(0,-280.06665)">
    <g
       id="g836">
      <g
         id="g903">
        <g
           id="g913">
          <path
             style="fill:#0075f2;stroke:none;stroke-width:0.121742;fill-opacity:1"
             d=""
             id="path28"
             transform="matrix(0.26458333,0,0,0.26458333,0,280.06665)" />
          <g
             id="g897">
            <ellipse
               style="opacity:1;fill:#ffffff;fill-opacity:1;fill-rule:nonzero;stroke:none;stroke-width:0.26458332"
               id="path10"
               cx="8.0324783"
               cy="288.71939"
               rx="7.1330891"
               ry="7.5362635" />
            <ellipse
               style="opacity:1;fill:#141821;fill-opacity:0;fill-rule:nonzero;stroke:none;stroke-width:0.26458332"
               id="path14"
               cx="8.4666662"
               cy="288.53333"
               rx="8.4666662"
               ry="8.4356527" />
            <path
               style="opacity:1;fill:#141821;fill-opacity:0;fill-rule:nonzero;stroke:none;stroke-width:0.03101343"
               d="M 7.3718924,296.24276 C 6.0067314,296.07832 4.8857381,295.63079 3.8226068,294.82578 3.4765241,294.56373 2.883622,293.98098 2.5858582,293.61022 1.6289,292.41864 1.072675,291.0225 0.91782944,289.4234 c -0.0445921,-0.4605 -0.0189668,-1.42753 0.0497202,-1.87631 0.28180756,-1.84123 1.18778356,-3.50889 2.53768896,-4.67121 1.8024411,-1.55197 4.1485782,-2.0763 6.427376,-1.43642 1.5467354,0.43431 2.9893524,1.50555 3.9441174,2.92875 1.321178,1.9694 1.661733,4.55163 0.902606,6.84394 -0.874123,2.63956 -3.014305,4.51652 -5.6711257,4.97365 -0.2831052,0.0487 -1.4790914,0.0879 -1.7363199,0.057 z"
               id="path821"
               inkscape:connector-curvature="0" />
            <path
               style="opacity:1;fill:#303030;fill-opacity:1;fill-rule:nonzero;stroke:none;stroke-width:0.03574367"
               d="M 7.6989103,296.98576 C 6.0817666,296.80137 4.7538596,296.29953 3.4944946,295.39686 3.0845317,295.103 2.3821912,294.44955 2.0294659,294.0338 0.89587161,292.69765 0.23697815,291.13211 0.05355101,289.339 7.281868e-4,288.82262 0.03108307,287.73825 0.11244837,287.23503 0.44627226,285.1704 1.519474,283.30041 3.1185461,281.99706 c 2.1351372,-1.74028 4.9143262,-2.32822 7.6137469,-1.61071 1.832233,0.48702 3.541129,1.68822 4.672125,3.28411 1.565043,2.20834 1.968458,5.10388 1.06921,7.67431 -1.03547,2.95982 -3.570688,5.06452 -6.7179067,5.57711 -0.335361,0.0546 -1.7521033,0.0986 -2.0568112,0.0639 z"
               id="path823"
               inkscape:connector-curvature="0" />
            <path
               inkscape:connector-curvature="0"
               id="path25"
               d="m 7.6576446,296.98697 c -0.00873,-0.009 -0.062647,-0.0208 -0.1198039,-0.0269 -0.057157,-0.006 -0.1527675,-0.0192 -0.2124684,-0.0292 -0.059701,-0.01 -0.1504151,-0.0238 -0.2015873,-0.0307 -0.051172,-0.007 -0.1628204,-0.028 -0.2481075,-0.0469 -0.085287,-0.0189 -0.2108912,-0.0416 -0.2791208,-0.0505 -0.06823,-0.009 -0.2287241,-0.0493 -0.3566544,-0.0898 -0.4437309,-0.14044 -0.6048806,-0.18644 -0.6280221,-0.17926 -0.012793,0.004 -0.02326,-0.006 -0.02326,-0.0213 0,-0.0157 -0.045357,-0.038 -0.1007935,-0.0495 -0.096419,-0.02 -0.3460171,-0.12474 -0.5272283,-0.22122 -0.046908,-0.025 -0.085287,-0.0366 -0.085287,-0.0259 0,0.0107 -0.035545,-0.008 -0.07899,-0.0426 -0.043445,-0.0342 -0.1192382,-0.071 -0.1684308,-0.0818 -0.049193,-0.0108 -0.1060704,-0.0397 -0.1263949,-0.0642 -0.020325,-0.0245 -0.047443,-0.0445 -0.060264,-0.0445 -0.023466,0 -0.2457794,-0.1249 -0.3985334,-0.2239 -0.045256,-0.0293 -0.1216482,-0.0756 -0.1697606,-0.10272 -0.048112,-0.0272 -0.168915,-0.11133 -0.2684505,-0.18703 -0.099535,-0.0757 -0.1902611,-0.13763 -0.2016122,-0.13763 -0.011351,0 -0.039478,-0.0174 -0.062504,-0.0388 -0.023026,-0.0213 -0.1143031,-0.10157 -0.2028383,-0.17832 -0.3041602,-0.2637 -0.4740947,-0.41878 -0.5233672,-0.47762 -0.1020607,-0.12187 -0.282849,-0.29772 -0.3060774,-0.29772 -0.013266,0 -0.04802,-0.0279 -0.07723,-0.062 -0.02921,-0.0341 -0.044792,-0.062 -0.034626,-0.062 0.010166,0 -0.021372,-0.0384 -0.070084,-0.0853 -0.1010376,-0.0973 -0.3214308,-0.36368 -0.3676876,-0.44441 -0.017057,-0.0298 -0.076709,-0.1042 -0.1325592,-0.16539 -0.05585,-0.0612 -0.091796,-0.11126 -0.079881,-0.11126 0.011916,0 -0.011113,-0.0349 -0.051174,-0.0775 -0.040061,-0.0426 -0.060995,-0.0775 -0.04652,-0.0775 0.014475,0 -0.00267,-0.0314 -0.038103,-0.0698 -0.081776,-0.0886 -0.41159163,-0.64495 -0.41159163,-0.69432 0,-0.0204 -0.0104669,-0.0417 -0.02326,-0.0474 -0.0435901,-0.0194 -0.23701972,-0.43522 -0.39430718,-0.8477 -0.0455301,-0.1194 -0.10415919,-0.26777 -0.13028687,-0.32971 -0.0261276,-0.062 -0.0496205,-0.14916 -0.0522063,-0.19382 -0.002586,-0.0446 -0.0151686,-0.0812 -0.0279616,-0.0812 -0.0127931,-1e-5 -0.0232601,-0.0302 -0.0232601,-0.0671 0,-0.0369 -0.0197109,-0.13807 -0.0438018,-0.22485 -0.0711565,-0.25634 -0.11988673,-0.46263 -0.12884997,-0.54546 -0.004614,-0.0426 -0.0113045,-0.0775 -0.0148672,-0.0775 -0.003563,0 -0.009927,-0.0279 -0.0141422,-0.062 -0.004216,-0.0341 -0.0177482,-0.11785 -0.0300726,-0.18608 -0.0123244,-0.0682 -0.02705457,-0.1729 -0.03273378,-0.2326 -0.0056792,-0.0597 -0.02010893,-0.20624 -0.03206602,-0.32565 -0.04032259,-0.40265 -0.01857677,-1.48675 0.03712454,-1.85077 0.0086745,-0.0567 0.02132084,-0.14494 0.02810298,-0.19611 0.032866,-0.24798 0.0726712,-0.44731 0.0998485,-0.5 0.0165197,-0.032 0.0236242,-0.0762 0.0157878,-0.0981 -0.007836,-0.0219 -2.8442e-4,-0.0568 0.0167821,-0.0775 0.0170666,-0.0207 0.0384063,-0.0796 0.0474216,-0.13076 0.0231431,-0.13136 0.13156105,-0.49161 0.16901258,-0.56159 0.0172723,-0.0323 0.0329472,-0.0726 0.0348332,-0.0897 0.008943,-0.0809 0.0393685,-0.16593 0.14423906,-0.40318 0.0301596,-0.0682 0.0548426,-0.1415 0.0548512,-0.16282 8.55e-6,-0.0213 0.0116456,-0.0388 0.0258601,-0.0388 0.0142145,0 0.0258445,-0.0204 0.0258445,-0.0454 0,-0.0603 0.43263939,-0.89199 0.51172169,-0.98369 0.034115,-0.0396 0.079642,-0.11132 0.1011717,-0.15949 0.041152,-0.0921 0.2234534,-0.33927 0.2632361,-0.35695 0.012793,-0.006 0.02326,-0.0281 0.02326,-0.0497 0,-0.0217 0.034224,-0.0763 0.076053,-0.12147 0.041829,-0.0451 0.069833,-0.0821 0.062232,-0.0821 -0.0076,0 0.013153,-0.0314 0.046121,-0.0698 0.3752773,-0.43687 0.4858419,-0.5617 0.5392677,-0.60884 0.031287,-0.0276 0.085757,-0.0746 0.1210457,-0.10447 0.035288,-0.0298 0.055047,-0.0543 0.043909,-0.0543 -0.011139,0 0.00766,-0.0279 0.041775,-0.062 0.034115,-0.0341 0.069613,-0.062 0.078885,-0.062 0.021378,0 0.247642,-0.20555 0.3499289,-0.31789 0.04271,-0.0469 0.088584,-0.0853 0.1019434,-0.0853 0.013359,0 0.063387,-0.0366 0.1111737,-0.0814 0.047787,-0.0448 0.1416127,-0.11623 0.2085025,-0.15882 0.06689,-0.0426 0.1495973,-0.10349 0.1837947,-0.13535 0.034197,-0.0319 0.087628,-0.066 0.1187362,-0.0759 0.031108,-0.01 0.05656,-0.031 0.05656,-0.0469 0,-0.0159 0.019225,-0.0289 0.042723,-0.0289 0.023498,0 0.060376,-0.0213 0.081953,-0.0473 0.021577,-0.026 0.046172,-0.0403 0.054656,-0.0319 0.00849,0.008 0.065809,-0.0242 0.1273876,-0.0726 0.061579,-0.0484 0.1433626,-0.0979 0.1817418,-0.10981 0.038379,-0.012 0.06978,-0.0347 0.06978,-0.0507 0,-0.0159 0.026749,-0.0289 0.059442,-0.0289 0.032693,0 0.064094,-0.0121 0.06978,-0.0268 0.010287,-0.0267 0.458998,-0.24524 0.75466,-0.36762 0.3641934,-0.15076 0.4039346,-0.16597 0.4186814,-0.16024 0.00853,0.003 0.060864,-0.0174 0.1163002,-0.0461 0.055437,-0.0287 0.1007936,-0.0455 0.1007936,-0.0374 0,0.008 0.048846,-0.006 0.1085471,-0.0306 0.059701,-0.0249 0.1085469,-0.0377 0.1085469,-0.0283 0,0.009 0.025752,0.003 0.057229,-0.0136 0.053789,-0.0288 0.097587,-0.0404 0.3071789,-0.0812 0.046908,-0.009 0.1341329,-0.0324 0.1938338,-0.0516 0.059701,-0.0192 0.1364591,-0.0374 0.1705739,-0.0405 0.034115,-0.003 0.1108731,-0.0149 0.170574,-0.0266 0.059701,-0.0116 0.1713492,-0.0279 0.2481074,-0.0362 0.076758,-0.008 0.1814285,-0.0207 0.2326005,-0.0276 0.3369226,-0.0451 0.5209591,-0.0555 0.9614165,-0.0542 0.5092377,10e-4 0.8785701,0.0193 1.0699633,0.0515 0.059701,0.01 0.1573932,0.0233 0.2170941,0.0294 0.059701,0.006 0.1853052,0.0269 0.2791209,0.0462 0.093816,0.0193 0.2194196,0.0423 0.2791206,0.0511 0.0597,0.009 0.143437,0.0277 0.186081,0.0422 0.04264,0.0145 0.175226,0.0506 0.294627,0.0803 0.403309,0.10026 0.738778,0.2204 1.209524,0.43317 0.08529,0.0385 0.186468,0.0797 0.224847,0.0914 0.03838,0.0117 0.06978,0.0352 0.06978,0.0521 0,0.0169 0.01276,0.0229 0.02836,0.0132 0.0156,-0.01 0.03305,-0.007 0.03877,0.006 0.0057,0.0129 0.08716,0.0616 0.180976,0.10818 0.221715,0.11013 0.354097,0.18864 0.366992,0.21765 0.0057,0.0128 0.02173,0.0233 0.03565,0.0233 0.03573,0 0.352459,0.21584 0.379972,0.25894 0.01253,0.0196 0.02321,0.0217 0.02374,0.005 6.35e-4,-0.0206 0.0086,-0.0206 0.02374,8e-5 0.03028,0.0413 0.364409,0.29455 0.388648,0.29455 0.01044,0 0.0517,0.0314 0.09168,0.0698 0.03998,0.0384 0.124386,0.11164 0.187561,0.16282 0.170856,0.13839 0.82417,0.78999 0.917302,0.91489 0.04452,0.0597 0.09846,0.11971 0.119887,0.13335 0.02142,0.0136 0.03895,0.0399 0.03895,0.0585 0,0.0185 0.0314,0.0654 0.06978,0.10409 0.09244,0.0933 0.131309,0.14347 0.176479,0.22787 0.02066,0.0386 0.06092,0.0949 0.08948,0.12519 0.08419,0.0892 0.160473,0.18774 0.160473,0.20729 0,0.01 0.07676,0.14228 0.170574,0.29394 0.09381,0.15167 0.170573,0.29684 0.170573,0.32261 0,0.0258 0.01396,0.0469 0.03101,0.0469 0.01706,0 0.03101,0.0142 0.03101,0.0316 0,0.0174 0.03489,0.0869 0.07753,0.15445 0.04264,0.0675 0.07753,0.13513 0.07753,0.15016 0,0.015 0.04456,0.12348 0.09901,0.24097 0.05446,0.1175 0.100983,0.22061 0.103392,0.22914 0.0024,0.009 0.02092,0.0555 0.04113,0.10433 0.06577,0.15898 0.213773,0.62034 0.255058,0.79506 0.02217,0.0938 0.04988,0.18453 0.06157,0.20159 0.0117,0.017 0.03212,0.10079 0.04539,0.18608 0.02719,0.17477 0.03067,0.19338 0.07235,0.38766 0.01647,0.0768 0.03877,0.21632 0.04955,0.31014 0.01079,0.0938 0.02725,0.2264 0.03658,0.29463 0.08021,0.58629 0.04808,1.67018 -0.06712,2.26398 -0.02316,0.1194 -0.05005,0.26594 -0.05974,0.32564 -0.0097,0.0597 -0.04563,0.22019 -0.07986,0.35665 -0.03423,0.13646 -0.06794,0.27144 -0.07492,0.29995 -0.02645,0.10809 -0.182368,0.56978 -0.202436,0.59944 -0.01154,0.0171 -0.03806,0.0907 -0.05894,0.16372 -0.03147,0.11002 -0.227198,0.53723 -0.348755,0.76121 -0.01688,0.0311 -0.06058,0.11484 -0.09711,0.18608 -0.03653,0.0712 -0.07444,0.13651 -0.08423,0.14504 -0.0098,0.009 -0.03489,0.0504 -0.05575,0.093 -0.07081,0.1447 -0.159829,0.28904 -0.22324,0.36197 -0.03476,0.04 -0.0632,0.0832 -0.0632,0.096 0,0.0128 -0.03489,0.061 -0.07753,0.10695 -0.04264,0.046 -0.07753,0.0977 -0.07753,0.11492 0,0.0172 -0.0414,0.0736 -0.09199,0.12541 -0.0506,0.0518 -0.08404,0.0941 -0.07432,0.0941 0.01771,0 -0.08337,0.12466 -0.289203,0.35665 -0.244393,0.27546 -0.324665,0.35665 -0.35258,0.35665 -0.01609,0 -0.02926,0.0148 -0.02926,0.0328 0,0.0181 -0.06509,0.0913 -0.144645,0.16282 -0.07955,0.0715 -0.187819,0.17186 -0.240589,0.22304 -0.05277,0.0512 -0.169108,0.14824 -0.25853,0.21571 -0.08942,0.0675 -0.162586,0.13059 -0.162586,0.14026 0,0.01 -0.04885,0.0439 -0.108546,0.0761 -0.0597,0.0322 -0.108548,0.0702 -0.108548,0.0846 0,0.0144 -0.01454,0.0261 -0.03232,0.0261 -0.03042,0 -0.0655,0.0243 -0.168126,0.1163 -0.02378,0.0213 -0.05028,0.0388 -0.05889,0.0388 -0.01927,0 -0.339438,0.1945 -0.36093,0.21926 -0.0085,0.01 -0.03644,0.0275 -0.06203,0.0393 -0.04318,0.0199 -0.275208,0.14698 -0.418681,0.22937 -0.166048,0.0953 -0.676558,0.31944 -0.759829,0.33353 -0.0085,10e-4 -0.04346,0.0182 -0.07761,0.0373 -0.07534,0.042 -0.676471,0.24641 -0.806268,0.27412 -0.05117,0.0109 -0.120953,0.0245 -0.155067,0.0302 -0.03411,0.006 -0.06203,0.0133 -0.06203,0.0169 0,0.004 -0.02791,0.0104 -0.06203,0.0151 -0.03411,0.005 -0.159719,0.0322 -0.279121,0.0611 -0.3120232,0.0756 -0.4588699,0.0977 -0.8218557,0.12408 -0.3373377,0.0245 -1.6648893,0.046 -1.6836009,0.0273 z"
               style="opacity:1;fill:#00ca4e;fill-opacity:1;fill-rule:nonzero;stroke:none;stroke-width:0.03101343" />
            <g
               id="g899">
              <ellipse
                 style="opacity:1;fill:#17477e;fill-opacity:1;fill-rule:nonzero;stroke:none;stroke-width:0.4088906"
                 id="path832"
                 cx="8.5131874"
                 cy="288.53333"
                 rx="7.3036633"
                 ry="7.1951165" />
              <g
                 id="g891"
                 transform="translate(-0.18608059,0.24810745)">
                <text
                   xml:space="preserve"
                   style="font-style:normal;font-variant:normal;font-weight:normal;font-stretch:normal;font-size:4.93889px;line-height:1.25;font-family:'Segoe UI';-inkscape-font-specification:'Segoe UI';letter-spacing:0px;word-spacing:0px;fill:#f1f8fb;fill-opacity:1;stroke:none;stroke-width:0.264583"
                   x="4.0627599"
                   y="289.89792"
                   id="text840"><tspan
                     sodipodi:role="line"
                     id="tspan838"
                     x="4.0627599"
                     y="289.89792"
                     style="font-style:normal;font-variant:normal;font-weight:900;font-stretch:normal;font-size:8.46667px;font-family:'Segoe UI';-inkscape-font-specification:'Segoe UI Heavy';fill:#f1f8fb;fill-opacity:1;stroke-width:0.264583">P</tspan></text>
                <text
                   xml:space="preserve"
                   style="font-style:normal;font-variant:normal;font-weight:900;font-stretch:normal;font-size:6.35px;line-height:1.25;font-family:'Segoe UI';-inkscape-font-specification:'Segoe UI Heavy';letter-spacing:0px;word-spacing:0px;fill:#f1f8fb;fill-opacity:1;stroke:none;stroke-width:0.264583"
                   x="7.65838"
                   y="292.62708"
                   id="text848"><tspan
                     sodipodi:role="line"
                     id="tspan846"
                     x="7.65838"
                     y="292.62708"
                     style="font-size:8.46667px;fill:#f1f8fb;fill-opacity:1;stroke-width:0.264583">4</tspan></text>
              </g>
            </g>
            <path
               style="fill:#0075f2;stroke:none;stroke-width:0.121742;fill-opacity:1"
               d="M 30.317973,59.058024 C 23.730272,58.614507 17.668527,55.92893 12.960393,51.367974 8.5442593,47.089889 5.8546944,41.913672 4.9078572,35.870421 4.6120218,33.982232 4.616337,29.910659 4.9161149,28.078901 6.3908932,19.067437 11.789635,11.746491 19.908989,7.7478579 34.205368,0.70715499 51.406382,7.0601888 57.650738,21.68742 c 0.857191,2.007946 1.587908,4.812106 1.887582,7.243678 0.173691,1.409347 0.174677,4.844643 0.0018,6.160745 -1.180283,8.98375 -6.277119,16.424438 -14.186914,20.710964 -4.546342,2.463783 -9.822696,3.606148 -15.035198,3.255217 z M 44.31836,46.522889 v -1.94788 h 1.582652 1.582653 V 42.322773 40.070537 H 45.901012 44.31836 v -7.061065 -7.061065 h -3.197995 -3.197997 l -0.77285,1.552217 c -1.881736,3.779334 -5.03307,8.598703 -7.605176,11.630679 l -0.687279,0.81016 v 2.316773 2.316773 h 4.747957 4.747958 v 1.94788 1.94788 h 2.982691 2.982691 z M 23.622135,34.531253 v -3.591404 h 1.573844 c 1.995873,0 3.182972,-0.164024 4.620707,-0.638456 2.665399,-0.879543 4.604256,-2.881576 5.187885,-5.356927 0.230141,-0.976097 0.229729,-2.955023 -8.52e-4,-4.048373 -0.52547,-2.491785 -2.170662,-4.118873 -4.860221,-4.806747 -1.543485,-0.394756 -3.155465,-0.489051 -8.360399,-0.489051 h -4.978543 v 11.261181 11.261181 h 3.40879 3.408789 z"
               id="path22"
               transform="matrix(0.26458333,0,0,0.26458333,0,280.06665)" />
            <path
               style="fill:#0075f2;stroke:none;stroke-width:0.121742;fill-opacity:1"
               d="m 23.622135,23.270072 v -2.678335 h 0.951844 c 1.063133,0 2.016264,0.235941 2.504471,0.619965 0.996335,0.783717 1.180291,2.783353 0.355529,3.864671 -0.502488,0.658796 -1.114339,0.866254 -2.563983,0.86936 l -1.247861,0.0027 z"
               id="path24"
               transform="matrix(0.26458333,0,0,0.26458333,0,280.06665)" />
            <path
               style="fill:#0075f2;stroke:none;stroke-width:0.121742;fill-opacity:1"
               d="m 35.132759,39.318938 c 0.762541,-1.035839 1.803738,-2.728173 2.571082,-4.178972 l 0.643911,-1.217425 0.0026,3.073998 0.0026,3.073998 h -1.886757 -1.886757 z"
               id="path26"
               transform="matrix(0.26458333,0,0,0.26458333,0,280.06665)" />
            <path
               style="fill:#0075f2;stroke:none;stroke-width:0.121742;fill-opacity:1"
               d="m 24.08085,15.633807 c 0.218814,-0.02709 0.547519,-0.02654 0.730455,0.0012 0.182936,0.02778 0.0039,0.04995 -0.397843,0.04926 -0.401751,-6.83e-4 -0.551426,-0.02341 -0.332612,-0.05051 z"
               id="path30"
               transform="matrix(0.26458333,0,0,0.26458333,0,280.06665)" />
            <path
               style="fill:#0075f2;stroke:#0075f2;stroke-width:0.121742;fill-opacity:1;stroke-opacity:1"
               d="M 29.069919,58.886059 C 22.380889,58.032911 16.667743,55.179229 12.162273,50.440792 8.4402672,46.52633 6.0959208,41.928818 5.1050719,36.600876 4.7922268,34.918661 4.6645449,31.085441 4.8583409,29.19361 5.3463645,24.429537 7.524854,19.135142 10.57131,15.309348 14.919979,9.8482131 21.417363,6.1893016 28.552707,5.1833744 c 1.757489,-0.2477676 5.214742,-0.2787267 6.878451,-0.061595 5.228807,0.682414 10.20085,2.7897789 14.183001,6.0113636 1.3703,1.108581 3.637277,3.465839 4.647304,4.832379 3.945091,5.337607 5.67737,11.218207 5.276508,17.912262 -0.267833,4.472596 -1.853495,9.104596 -4.455819,13.016237 -4.191013,6.299656 -11.111691,10.666296 -18.798797,11.861207 -1.760895,0.27372 -5.55377,0.342512 -7.213436,0.130831 z M 44.31836,46.522889 v -1.94788 h 1.582652 1.582653 V 42.322773 40.070537 H 45.901012 44.31836 v -7.061065 -7.061065 h -3.215955 -3.215954 l -0.942799,1.795702 c -2.118455,4.034919 -5.044692,8.489848 -7.401269,11.267761 l -0.68532,0.80785 v 2.377645 2.377644 h 4.747957 4.747958 v 1.94788 1.94788 h 2.982691 2.982691 z M 23.622135,34.545902 v -3.576754 l 2.282672,-0.05944 c 2.011399,-0.05238 2.409939,-0.09765 3.353591,-0.380987 3.062274,-0.919458 5.07378,-2.807916 5.747989,-5.396376 0.245207,-0.941414 0.24231,-3.521344 -0.005,-4.484593 -0.467757,-1.821625 -1.53565,-3.163497 -3.145299,-3.952262 -1.975632,-0.968106 -3.09869,-1.0929 -9.847001,-1.094195 l -5.204491,-9.99e-4 v 11.261181 11.261181 h 3.40879 3.408789 z"
               id="path32"
               transform="matrix(0.26458333,0,0,0.26458333,0,280.06665)" />
            <path
               style="fill:#00ca4e;fill-opacity:1;stroke-width:0.121742;stroke:#00ca4e;stroke-opacity:1"
               d="m 28.309222,63.797586 c -0.334792,-0.06858 -1.348299,-0.256163 -2.252237,-0.416844 -1.521738,-0.270499 -4.405744,-1.027984 -4.900194,-1.28704 -0.117208,-0.06141 -0.555481,-0.24077 -0.973939,-0.39858 C 17.465603,60.67038 13.733644,58.443768 11.6305,56.592502 10.200446,55.333716 7.757625,52.812309 6.8998475,51.709665 6.0382449,50.602104 5.4825034,49.829042 5.4825034,49.738073 c 0,-0.03478 -0.2213331,-0.389167 -0.4918513,-0.787522 C 3.8786446,47.313048 1.9681276,43.168617 1.4863804,41.348833 0.72615479,38.477108 0.42552886,36.792199 0.24684513,34.40165 -0.00990759,30.966643 0.29342644,27.407839 1.1074415,24.304883 c 0.5643332,-2.15119 1.521807,-4.940753 1.7271626,-5.032022 0.050219,-0.02232 0.091307,-0.118602 0.091307,-0.213962 0,-0.205753 1.3247832,-2.771928 1.8797723,-3.641218 0.4006345,-0.627522 0.7488095,-1.145705 1.5898889,-2.366208 1.10593,-1.604832 4.1535577,-4.7621328 5.7827687,-5.9908694 1.546988,-1.1667249 2.584586,-1.8647072 4.077975,-2.7432146 1.440361,-0.8473121 5.010174,-2.407644 6.368714,-2.7837056 1.851252,-0.51245 3.097859,-0.79863302 4.215983,-0.96786078 5.989231,-0.90646791 12.090703,-0.21259853 17.355604,1.97370758 1.742035,0.7233983 3.459076,1.5863034 4.100687,2.0608147 0.213147,0.1576356 0.432283,0.2891064 0.48697,0.2921574 0.05469,0.00305 0.592487,0.3589838 1.195112,0.7909619 0.602625,0.431978 1.424387,1.0149698 1.826138,1.2955374 0.832594,0.5814537 4.746724,4.4370834 5.187081,5.1095564 0.160233,0.244692 0.632894,0.890665 1.05036,1.435496 0.978553,1.277102 2.596195,4.156253 3.411405,6.071771 1.159936,2.72553 2.013606,6.042315 2.347344,9.120198 0.218909,2.018874 0.09216,6.486638 -0.238906,8.420921 -1.000854,5.847642 -3.312784,10.925772 -7.005206,15.386859 -1.382522,1.670327 -3.96459,4.100123 -5.654603,5.321138 -1.224125,0.884416 -1.941549,1.323879 -3.845433,2.355544 -3.117505,1.689294 -7.322812,3.063382 -10.653377,3.480999 -1.45723,0.182722 -7.356722,0.267335 -8.094967,0.116102 z m 7.000193,-4.741313 c 9.183829,-0.944851 17.582856,-6.761307 21.661452,-15.000889 1.898321,-3.83499 2.676653,-7.035487 2.775087,-11.41114 0.07867,-3.496936 -0.242399,-5.868093 -1.198997,-8.854929 C 55.71,14.931342 48.397549,8.0454235 39.326918,5.6903743 35.161732,4.6089482 30.748609,4.4808857 26.604827,5.3211973 16.26799,7.4173898 8.0339693,15.126876 5.4193601,25.157081 3.0472866,34.256866 5.4966475,43.738811 12.002842,50.643 c 4.089972,4.340162 9.947026,7.368641 16.062895,8.305564 2.028827,0.310807 4.860356,0.352911 7.243678,0.107709 z"
               id="path857"
               transform="matrix(0.26458333,0,0,0.26458333,0,280.06665)" />
          </g>
        </g>
      </g>
    </g>
  </g>
</svg>
